<?xml version="1.0" encoding="UTF-8" standalone="no"?>
<svg
   version="1.1"
   width="1024px"
   height="768px"
   viewBox="0 0 1024 768"
   xmlns="http://www.w3.org/2000/svg"
   >&#10;<defs
   id="defs1">&#10;</defs>&#10;<g
   id="XMLID_1_"
   transform="translate(6)">&#10;	<g
   id="g3">&#10;		<path
   fill="#2996ff"
   d="m 518.657,498.732 c 62.179,-90.78 181.114,-150.576 291.976,-202.596 11.59,7.299 22.911,14.808 35.753,20.855 -121.975,47.85 -241.954,97.694 -327.729,181.741 z"
   id="path1" />&#10;		<path
   fill="#2996ff"
   d="M 500.78,495.753 C 454.839,463.1 404.994,428.122 348.834,397.435 c -55.505,-30.33 -116.046,-56.22 -178.761,-77.463 5.453,-10.517 26.695,-20.885 32.773,-20.855 119.412,45.434 217.731,111.992 297.934,196.636 z"
   id="path2" />&#10;		<path
   fill="#2996ff"
   d="m 1013.228,549.381 c -123.792,-33.13 -294.479,-46.358 -443.923,-26.813 -16.386,49.188 -107.465,54.969 -122.153,0 C 296.666,503.41 124.667,515.596 0.25,549.381 5.702,514.136 18.484,486.19 24.085,451.063 192.716,446.296 333.133,469.774 459.07,507.671 354.108,448.769 229.839,409.173 74.734,400.414 c 9.892,-21.868 23.477,-40.072 35.752,-59.587 155.85,33.815 286.196,93.164 396.253,172.802 108.776,-79.906 240.046,-137.348 393.274,-172.802 16.982,15.79 27.172,38.374 38.731,59.587 -153.466,9.385 -279.344,46.418 -381.356,107.257 124,-38.881 264.626,-61.137 432.005,-56.608 5.602,35.126 18.383,63.073 23.835,98.318 z"
   id="path3" />&#10;	</g>&#10;	<g
   id="g4">&#10;	</g>&#10;</g>&#10;<rect
   x="59.835"
   y="37.265"
   fill="none"
   width="893.805"
   height="283.038"
   id="rect4" />&#10;<path
   style="-inkscape-font-specification:Kefa;fill:#808080;stroke-width:0.74833"
   d="m 106.60196,43.823849 q 26.84241,0 37.23302,3.216142 10.39061,3.092443 10.39061,12.122379 0,8.287749 -6.67968,14.720032 -25.97653,-11.874984 -48.24212,-11.874984 -15.709615,0 -22.265595,6.308586 -6.432283,6.184887 -6.432283,17.193987 0,11.503891 7.66926,18.307269 7.792958,6.80337 29.440068,13.60675 25.60543,7.66926 38.71739,17.68878 13.23566,9.89582 13.97785,32.16141 0,24.86325 -17.07029,37.60412 -16.94659,12.74087 -51.953056,12.74087 -24.368457,0 -36.985628,-3.46354 -12.61717,-3.46354 -12.61717,-12.86456 0,-8.53515 7.174469,-15.09113 24.492155,13.35936 50.963473,13.35936 18.183572,0 25.852832,-5.9375 7.66926,-5.93749 7.66926,-18.30726 0,-14.84373 -11.1328,-22.2656 -11.0091,-7.42186 -35.253858,-15.09112 -23.502572,-7.17447 -33.52209,-17.93618 -9.89582,-10.8854 -9.89582,-28.450479 0,-21.894502 16.204405,-34.759068 Q 76.17231,43.823849 106.60196,43.823849 Z M 234.62912,202.40436 q 0.98959,-17.19398 0.98959,-88.19649 0,-37.97521 -0.98959,-51.953056 -43.9127,1.855466 -49.60279,1.855466 -5.4427,0 -7.54557,-1.731768 -2.10286,-1.731769 -2.10286,-6.555981 0,-6.927074 3.46354,-15.091126 21.02862,5.566399 60.98299,5.566399 h 77.31109 q 5.4427,0 7.54557,1.855466 2.22656,1.731769 2.22656,6.432283 0,8.658843 -5.07161,16.451801 -20.65753,-8.78254 -53.68483,-8.78254 h -4.20572 q -0.98958,13.977846 -0.98958,53.437426 0,69.51814 0.98958,86.71212 h 17.68878 q 1.48437,3.71094 1.48437,7.17447 0,3.09245 -1.23698,4.32943 -1.23697,1.23697 -4.32942,1.23697 h -60.61189 q -1.60807,-4.20572 -1.60807,-7.79296 0,-2.59765 1.23697,-3.71093 1.36068,-1.23698 4.32942,-1.23698 z m 107.86442,-63.33324 q 0,-48.736917 20.16273,-71.992094 20.28644,-23.255177 57.14836,-23.255177 33.64579,0 51.21087,16.946592 17.56508,16.822894 17.56508,61.601479 0,48.73691 -20.28643,71.99209 -20.16273,23.25518 -57.02466,23.25518 -33.64579,0 -51.21087,-16.8229 -17.56508,-16.82289 -17.56508,-61.72517 z m 30.30595,-11.3802 q 0,41.31505 11.1328,56.65357 11.25649,15.21483 33.27469,15.21483 20.41013,0 30.67704,-15.46222 10.39062,-15.46222 10.39062,-50.34499 0,-41.809836 -11.2565,-56.777264 -11.1328,-15.091125 -33.151,-15.091125 -20.41013,0 -30.80074,15.462218 -10.26691,15.462219 -10.26691,50.344981 z m 187.4021,0.74219 h 10.39061 q 21.52341,0 32.53251,-7.54556 11.1328,-7.54557 11.1328,-22.512993 0,-17.565081 -10.01952,-25.729132 -10.01952,-8.287749 -28.69788,-8.287749 -8.53514,0 -14.34894,1.236977 -0.98958,10.638007 -0.98958,50.097587 z m 0.98958,73.97125 h 17.68878 q 1.48438,3.71094 1.48438,7.17447 0,3.09245 -1.23698,4.32943 -1.23698,1.23697 -4.32942,1.23697 h -58.13795 q -1.60807,-4.20572 -1.60807,-7.79296 0,-2.59765 1.23698,-3.71093 1.36068,-1.23698 4.32942,-1.23698 h 11.2565 q 0.98958,-17.19398 0.98958,-88.19649 0,-37.97521 -0.98958,-55.169198 h -14.34894 q -1.48437,-4.205723 -1.48437,-7.792958 0,-2.597653 1.23697,-3.710932 1.36068,-1.236978 4.32942,-1.236978 h 53.31373 q 37.72782,0 53.68483,10.390611 15.95701,10.390611 15.95701,32.779904 0,34.264281 -41.06766,46.757751 11.75129,3.58723 19.04946,13.23566 7.29817,9.52472 15.33852,27.3372 8.16405,17.81248 12.74087,21.8945 4.70051,3.95833 13.23566,3.71093 2.59765,8.90624 -0.61849,12.12238 -3.21614,3.09245 -15.95701,3.09245 -14.72003,0 -21.15232,-3.83463 -6.43228,-3.83463 -13.48305,-27.21351 -6.92708,-23.50257 -14.72003,-33.0273 -7.79296,-9.52472 -22.51299,-9.52472 -7.66926,0 -15.21483,1.23697 0.2474,42.67573 0.98958,57.14836 z M 686.2496,46.297804 h 55.78768 q 1.48438,3.710933 1.48438,7.17447 0,3.092443 -1.23698,4.329421 -1.23698,1.236977 -4.32942,1.236977 h -11.2565 q -0.86588,17.193988 -0.86588,56.653568 0,69.51814 0.98958,86.71212 h 15.21482 q 1.48438,3.71094 1.48438,7.17447 0,3.09245 -1.23698,4.32943 -1.23698,1.23697 -4.32942,1.23697 h -55.66399 q -1.60807,-4.20572 -1.60807,-7.79296 0,-2.59765 1.23698,-3.71093 1.36067,-1.23698 4.32942,-1.23698 h 11.25649 q 0.98959,-17.19398 0.98959,-88.19649 -0.1237,-37.97521 -0.98959,-55.169198 h -15.21482 q -1.60807,-4.205723 -1.60807,-7.792958 0,-2.597653 1.23698,-3.710932 1.36067,-1.236978 4.32942,-1.236978 z m 150.91125,-1.855466 q 13.97785,0 15.83331,1.11328 1.85547,0.989582 24.98695,69.147042 23.13148,68.03376 31.29553,87.7017 h 10.8854 q 1.48437,3.71094 1.48437,7.17447 0,3.09245 -1.23697,4.32943 -1.23698,1.23697 -4.32943,1.23697 h -51.33456 q -1.60807,-4.20572 -1.60807,-7.79296 0,-2.59765 1.23697,-3.71093 1.36068,-1.23698 4.32943,-1.23698 h 6.67967 q -2.35025,-11.00909 -11.87498,-42.30463 h -55.78768 q -8.65885,31.04814 -10.39062,42.30463 h 11.5039 q 1.48437,3.71094 1.48437,7.17447 0,3.09245 -1.23698,4.32943 -1.23698,1.23697 -4.32942,1.23697 h -45.52077 q -1.48438,-4.20572 -1.48438,-7.79296 0,-2.59765 1.23698,-3.71093 1.36068,-1.23698 4.32942,-1.23698 h 7.17447 q 8.16405,-22.51299 27.08981,-81.26942 18.92576,-58.880126 23.37887,-67.786364 4.45312,-8.906238 16.20441,-8.906238 z m -25.11064,99.700382 h 46.63405 Q 836.17127,72.521727 834.4395,72.521727 q -1.60807,0 -22.38929,71.620993 z m 167.85783,55.0455 h 10.5143 q 37.60416,0 60.11716,-8.65884 3.9583,6.80338 3.9583,14.10154 0,5.44271 -3.5873,8.04036 -3.5872,2.47395 -14.5963,2.47395 l -98.7108,0.1237 q -1.60807,-4.20572 -1.60807,-7.91666 0,-2.47395 1.23698,-3.58723 1.36068,-1.23698 4.32942,-1.23698 h 9.15364 q 0.86588,-17.31768 0.86588,-88.32019 0,-37.97521 -0.98958,-55.169198 H 937.6034 q -1.60807,-4.205723 -1.60807,-7.792958 0,-2.597653 1.23698,-3.710932 1.36068,-1.236978 4.32942,-1.236978 h 53.56113 q 1.60807,3.710933 1.60807,7.17447 0,3.092443 -1.23698,4.329421 -1.23698,1.236977 -4.45312,1.236977 h -11.13279 q -0.86589,17.193988 -0.86589,56.653568 0,69.51814 0.86589,83.49598 z"
   id="text4"
   transform="scale(0.93541432,1.069045)"
   aria-label="STORIAL" />&#10;</svg>
